<?xml version="1.0" encoding="UTF-8"?>
<!--Generator: Apple Native CoreSVG 232.5-->
<!DOCTYPE svg
PUBLIC "-//W3C//DTD SVG 1.1//EN"
       "http://www.w3.org/Graphics/SVG/1.1/DTD/svg11.dtd">
<svg version="1.1" xmlns="http://www.w3.org/2000/svg" xmlns:xlink="http://www.w3.org/1999/xlink" width="20.3027" height="20.5957">
 <g>
  <rect height="20.5957" opacity="0" width="20.3027" x="0" y="0"/>
  <path d="M5.56641 15.0293C8.7207 18.2031 12.4902 20.5957 15.5566 20.5957C16.9238 20.5957 18.1348 20.127 19.0918 19.0527C19.6582 18.4277 19.9414 17.7539 19.9414 17.0508C19.9414 16.3965 19.6777 15.7617 19.0527 15.3027L16.0156 13.1445C15.4785 12.7539 15.0488 12.5977 14.668 12.5977C14.1602 12.5977 13.7305 12.8809 13.2422 13.3594L12.4902 14.1211C12.3828 14.2285 12.2266 14.2773 12.0996 14.2773C11.9336 14.2773 11.7578 14.2188 11.6504 14.1406C10.9961 13.7598 9.86328 12.7832 8.83789 11.7578C7.8125 10.7324 6.83594 9.59961 6.45508 8.94531C6.37695 8.83789 6.31836 8.66211 6.31836 8.50586C6.31836 8.36914 6.36719 8.21289 6.47461 8.10547L7.23633 7.35352C7.71484 6.86523 7.99805 6.43555 7.99805 5.92773C7.99805 5.54688 7.83203 5.11719 7.45117 4.58008L5.29297 1.54297C4.84375 0.917969 4.19922 0.664062 3.54492 0.664062C2.82227 0.664062 2.14844 0.9375 1.54297 1.50391C0.46875 2.4707 0 3.68164 0 5.03906C0 8.10547 2.39258 11.875 5.56641 15.0293Z" fill="#ffffff" fill-opacity="0.85"/>
 </g>
</svg>
