<?xml version="1.0" encoding="UTF-8"?>
<!--Generator: Apple Native CoreSVG 232.5-->
<!DOCTYPE svg
PUBLIC "-//W3C//DTD SVG 1.1//EN"
       "http://www.w3.org/Graphics/SVG/1.1/DTD/svg11.dtd">
<svg version="1.1" xmlns="http://www.w3.org/2000/svg" xmlns:xlink="http://www.w3.org/1999/xlink" width="25.6152" height="17.0801">
 <g>
  <rect height="17.0801" opacity="0" width="25.6152" x="0" y="0"/>
  <path d="M4.26758 17.0703L13.6621 17.0703C16.3281 17.0703 17.7344 15.6641 17.7344 13.1836L17.7344 3.88672C17.7344 1.40625 16.3379 0 13.6719 0L4.26758 0C1.60156 0 0.195312 1.40625 0.195312 3.89648L0.195312 13.4863C0.195312 15.9668 1.5918 17.0703 4.26758 17.0703ZM19.5703 12.7148L22.0605 14.8145C22.7344 15.3809 23.3105 15.7617 23.9551 15.7617C24.9023 15.7617 25.6152 15.127 25.6152 14.0625L25.6152 3.25195C25.6152 2.1875 24.9023 1.55273 23.9551 1.55273C23.3008 1.55273 22.7441 1.93359 22.0605 2.5L19.5703 4.59961Z" fill="#ffffff" fill-opacity="0.85"/>
 </g>
</svg>
