<?xml version="1.0" encoding="UTF-8"?>
<!--Generator: Apple Native CoreSVG 232.5-->
<!DOCTYPE svg
PUBLIC "-//W3C//DTD SVG 1.1//EN"
       "http://www.w3.org/Graphics/SVG/1.1/DTD/svg11.dtd">
<svg version="1.1" xmlns="http://www.w3.org/2000/svg" xmlns:xlink="http://www.w3.org/1999/xlink" width="25.1953" height="20.459">
 <g>
  <rect height="20.459" opacity="0" width="25.1953" x="0" y="0"/>
  <path d="M16.7969 0.693359L17.5293 1.33789C18.1348 1.85547 18.4473 1.91406 19.1895 1.91406L20.9961 1.91406C23.418 1.91406 24.834 3.33008 24.834 5.74219L24.834 16.0938C24.834 18.5059 23.418 19.9219 20.9961 19.9219L3.82812 19.9219C1.41602 19.9219 0 18.5059 0 16.0938L0 5.74219C0 3.33008 1.41602 1.91406 3.82812 1.91406L5.63477 1.91406C6.38672 1.91406 6.68945 1.85547 7.29492 1.33789L8.03711 0.693359C8.63281 0.175781 9.20898 0 10.1465 0L14.6875 0C15.625 0 16.2012 0.175781 16.7969 0.693359ZM7.70508 8.30078L6.10352 10.3711C5.70312 10.8984 5.95703 11.543 6.5918 11.543L7.23633 11.543C7.73438 13.9355 9.83398 15.6543 12.4219 15.6543C13.5254 15.6543 14.3945 15.3809 15.0781 14.9219C15.7422 14.4824 15.8301 13.8281 15.5566 13.3398C15.2637 12.8223 14.6484 12.4902 13.9355 12.9297C13.4277 13.2422 12.9297 13.3789 12.4219 13.3789C11.1328 13.3789 10.0879 12.6465 9.63867 11.543L10.1758 11.543C10.8105 11.543 11.0449 10.8887 10.6445 10.3711L9.0332 8.30078C8.68164 7.8418 8.05664 7.85156 7.70508 8.30078ZM9.76562 5.84961C9.10156 6.28906 9.01367 6.94336 9.28711 7.43164C9.58008 7.94922 10.1953 8.27148 10.9082 7.8418C11.416 7.5293 11.9141 7.39258 12.4219 7.39258C13.7109 7.39258 14.7461 8.125 15.2051 9.22852L14.668 9.22852C14.0234 9.22852 13.7891 9.88281 14.1895 10.4004L15.8008 12.4707C16.1621 12.9297 16.7871 12.9199 17.1289 12.4707L18.7305 10.4004C19.1309 9.87305 18.877 9.22852 18.2422 9.22852L17.6074 9.22852C17.1094 6.83594 15.0098 5.11719 12.4219 5.11719C11.3184 5.11719 10.4492 5.38086 9.76562 5.84961Z" fill="#ffffff" fill-opacity="0.85"/>
 </g>
</svg>
