<?xml version="1.0" encoding="UTF-8"?>
<!--Generator: Apple Native CoreSVG 232.5-->
<!DOCTYPE svg
PUBLIC "-//W3C//DTD SVG 1.1//EN"
       "http://www.w3.org/Graphics/SVG/1.1/DTD/svg11.dtd">
<svg version="1.1" xmlns="http://www.w3.org/2000/svg" xmlns:xlink="http://www.w3.org/1999/xlink" width="25.0781" height="23.0566">
 <g>
  <rect height="23.0566" opacity="0" width="25.0781" x="0" y="0"/>
  <path d="M24.7168 10.0879C24.7168 16.9531 18.252 20.166 11.1523 20.1953C11.123 20.1953 11.0547 20.1953 10.9473 20.1953C10.7031 20.1953 10.5078 20.2344 10.2246 20.4102C8.02734 21.9336 5.42969 23.0469 4.16992 23.0469C3.25195 23.0469 2.85156 22.4316 3.50586 21.6406C3.94531 21.0938 4.79492 20.0781 5.47852 18.9355C5.625 18.6523 5.56641 18.5059 5.25391 18.3203C1.73828 16.377 0 13.291 0 10.0879C0 4.49219 5.49805 0 12.3633 0C19.2188 0 24.7168 4.49219 24.7168 10.0879ZM15.5859 10.0977C15.5859 11.1133 16.416 11.9336 17.4219 11.9336C18.4277 11.9336 19.248 11.1133 19.248 10.0977C19.248 9.0918 18.4277 8.27148 17.4219 8.27148C16.416 8.27148 15.5859 9.0918 15.5859 10.0977ZM10.5273 10.0977C10.5273 11.1133 11.3477 11.9336 12.3633 11.9336C13.3691 11.9336 14.1895 11.1133 14.1895 10.0977C14.1895 9.0918 13.3691 8.27148 12.3633 8.27148C11.3477 8.27148 10.5273 9.0918 10.5273 10.0977ZM5.46875 10.0977C5.46875 11.1133 6.28906 11.9336 7.30469 11.9336C8.31055 11.9336 9.13086 11.1133 9.13086 10.0977C9.13086 9.0918 8.31055 8.27148 7.30469 8.27148C6.28906 8.27148 5.46875 9.0918 5.46875 10.0977Z" fill="#ffffff" fill-opacity="0.85"/>
 </g>
</svg>
