<?xml version="1.0" encoding="UTF-8"?>
<!--Generator: Apple Native CoreSVG 232.5-->
<!DOCTYPE svg
PUBLIC "-//W3C//DTD SVG 1.1//EN"
       "http://www.w3.org/Graphics/SVG/1.1/DTD/svg11.dtd">
<svg version="1.1" xmlns="http://www.w3.org/2000/svg" xmlns:xlink="http://www.w3.org/1999/xlink" width="19.1113" height="24.9316">
 <g>
  <rect height="24.9316" opacity="0" width="19.1113" x="0" y="0"/>
  <path d="M0 11.4062C0 16.2793 3.34961 19.3652 7.77344 19.9609L7.77344 20.752L4.35547 20.752C3.41797 20.752 2.58789 21.5137 2.58789 22.4609C2.58789 23.3789 3.41797 24.1602 4.35547 24.1602L14.3848 24.1602C15.332 24.1602 16.1621 23.3789 16.1621 22.4609C16.1621 21.5137 15.332 20.752 14.3848 20.752L10.9766 20.752L10.9766 19.9609C15.4004 19.3652 18.75 16.2793 18.75 11.4062L18.75 9.6875C18.75 8.75 17.959 8.03711 17.002 8.03711C16.0547 8.03711 15.2441 8.75 15.2441 9.6875L15.2441 11.3086C15.2441 14.6289 12.6465 16.7285 9.375 16.7285C6.10352 16.7285 3.50586 14.6289 3.50586 11.3086L3.50586 9.6875C3.50586 8.75 2.69531 8.03711 1.73828 8.03711C0.78125 8.03711 0 8.75 0 9.6875ZM9.375 15.0488C11.4941 15.0488 13.5547 13.4277 13.5547 10.9082L13.5547 4.15039C13.5547 1.64062 11.4941 0 9.375 0C7.24609 0 5.15625 1.63086 5.15625 4.14062L5.15625 10.9082C5.15625 13.4277 7.24609 15.0488 9.375 15.0488Z" fill="#ffffff" fill-opacity="0.85"/>
 </g>
</svg>
