<?xml version="1.0" encoding="UTF-8"?>
<!--Generator: Apple Native CoreSVG 232.5-->
<!DOCTYPE svg
PUBLIC "-//W3C//DTD SVG 1.1//EN"
       "http://www.w3.org/Graphics/SVG/1.1/DTD/svg11.dtd">
<svg version="1.1" xmlns="http://www.w3.org/2000/svg" xmlns:xlink="http://www.w3.org/1999/xlink" width="23.8332" height="23.5889">
 <g>
  <rect height="23.5889" opacity="0" width="23.8332" x="0" y="0"/>
  <path d="M7.1813 10.1177C7.18055 10.1248 7.18025 10.1319 7.18025 10.1392L7.18025 13.4595C7.18025 13.606 7.28768 13.7231 7.44393 13.7231L10.1685 13.7231C10.4908 13.7231 10.7154 13.7915 10.94 14.0063L12.8499 15.7745L17.0807 19.9965C16.7681 20.6521 16.104 21.0864 15.315 21.0864C14.5924 21.0864 14.0748 20.8032 13.3814 20.1978L9.62166 16.8384C9.57283 16.7798 9.53377 16.7798 9.49471 16.7798L6.83846 16.7798C4.93416 16.7798 3.88924 15.6763 3.88924 13.7134L3.88924 9.89502C3.88924 8.90039 4.15488 8.12672 4.66309 7.60478ZM17.2779 4.48486L17.2779 13.5114L13.9869 10.2221L13.9869 7.15088C13.9869 7.05322 13.9283 6.99463 13.8404 6.99463C13.7916 6.99463 13.7428 7.00439 13.7037 7.04346L12.1997 8.43583L10.0984 6.33556L13.3814 3.41064C14.0943 2.77588 14.6412 2.51221 15.315 2.51221C16.4185 2.51221 17.2779 3.37158 17.2779 4.48486Z" fill="#ffffff" fill-opacity="0.85"/>
  <path d="M20.8424 21.6724C21.1939 22.0142 21.7603 22.0239 22.1021 21.6724C22.4342 21.3306 22.4439 20.7642 22.1021 20.4224L3.41072 1.74072C3.05916 1.38916 2.48299 1.38916 2.14119 1.74072C1.7994 2.08252 1.7994 2.65869 2.14119 3.00049Z" fill="#ffffff" fill-opacity="0.85"/>
 </g>
</svg>
